<svg xmlns="http://www.w3.org/2000/svg" xmlns:xlink="http://www.w3.org/1999/xlink" width="500" zoomAndPan="magnify" viewBox="0 0 375 187.499995" height="250" preserveAspectRatio="xMidYMid meet" version="1.0"><defs><g/><clipPath id="615b4a2394"><rect x="0" width="113" y="0" height="187"/></clipPath><clipPath id="571883b780"><rect x="0" width="79" y="0" height="139"/></clipPath><clipPath id="e8b4442a0c"><rect x="0" width="55" y="0" height="139"/></clipPath><clipPath id="06b85c8140"><rect x="0" width="71" y="0" height="139"/></clipPath><clipPath id="746991eee3"><rect x="0" width="108" y="0" height="69"/></clipPath></defs><g transform="matrix(1, 0, 0, 1, 51, 0)"><g clip-path="url(#615b4a2394)"><g fill="#fff9f9" fill-opacity="1"><g transform="translate(0.506516, 146.648389)"><g><path d="M 1.734375 0 L 1.734375 -110.234375 L 46.921875 -110.234375 C 57.941406 -110.234375 67.148438 -109.101562 74.546875 -106.84375 C 81.953125 -104.582031 87.859375 -101.457031 92.265625 -97.46875 C 96.679688 -93.476562 99.832031 -88.882812 101.71875 -83.6875 C 103.613281 -78.5 104.507812 -73.015625 104.40625 -67.234375 C 104.40625 -63.453125 103.773438 -59.695312 102.515625 -55.96875 C 101.253906 -52.25 99.335938 -48.945312 96.765625 -46.0625 C 94.191406 -43.175781 90.859375 -41.050781 86.765625 -39.6875 L 108.34375 0 L 65.5 0 L 45.515625 -41.734375 L 45.515625 -56.84375 L 54.640625 -56.84375 C 57.679688 -56.84375 59.910156 -57.65625 61.328125 -59.28125 C 62.742188 -60.914062 63.453125 -62.675781 63.453125 -64.5625 C 63.453125 -66.550781 62.742188 -68.332031 61.328125 -69.90625 C 59.910156 -71.488281 57.679688 -72.28125 54.640625 -72.28125 L 42.671875 -72.28125 L 42.671875 0 Z M 1.734375 0 "/></g></g></g></g></g><g transform="matrix(1, 0, 0, 1, 141, 8)"><g clip-path="url(#571883b780)"><g fill="#171616" fill-opacity="1"><g transform="translate(5.588321, 108.273774)"><g><path d="M 35.695312 -32.921875 C 36.183594 -33.1875 36.457031 -33.472656 36.511719 -33.777344 C 36.585938 -34.160156 36.496094 -34.515625 36.246094 -34.839844 C 36.214844 -34.882812 36.140625 -34.925781 36.027344 -34.96875 C 35.679688 -35.105469 35.183594 -35.175781 34.539062 -35.175781 L 34.375 -35.175781 C 33.753906 -35.199219 33.378906 -35.136719 33.25 -34.988281 C 32.894531 -34.578125 32.710938 -34.109375 32.699219 -33.570312 C 32.683594 -33.027344 32.839844 -32.550781 33.164062 -32.132812 C 33.171875 -32.125 33.195312 -32.113281 33.242188 -32.09375 C 33.480469 -32 33.835938 -31.949219 34.3125 -31.949219 L 71.210938 -31.949219 L 71.210938 4.316406 L 34.3125 4.316406 C 29.109375 4.316406 24.238281 3.335938 19.699219 1.371094 C 15.207031 -0.574219 11.226562 -3.273438 7.769531 -6.734375 C 4.3125 -10.191406 1.609375 -14.167969 -0.335938 -18.664062 C -2.300781 -23.203125 -3.28125 -28.074219 -3.28125 -33.273438 C -3.28125 -40.074219 -1.742188 -46.289062 1.335938 -51.921875 C 4.433594 -57.597656 8.828125 -62.148438 14.523438 -65.582031 C 20.222656 -69.019531 26.917969 -70.78125 34.609375 -70.867188 C 38.519531 -70.867188 42.429688 -70.496094 46.339844 -69.753906 C 50.484375 -68.96875 54.390625 -67.488281 58.050781 -65.308594 C 61.925781 -63 65.125 -59.640625 67.648438 -55.21875 C 68.808594 -53.191406 69.644531 -50.824219 70.15625 -48.125 C 70.644531 -45.5625 70.820312 -42.941406 70.6875 -40.257812 C 70.550781 -37.417969 69.960938 -34.75 68.925781 -32.253906 C 67.738281 -29.398438 65.890625 -27.148438 63.382812 -25.511719 L 62.304688 -24.8125 L 37.765625 -24.8125 Z M 39.832031 -25.339844 L 37.765625 -29.128906 L 37.765625 -33.449219 L 61.023438 -33.449219 L 61.023438 -29.128906 L 58.664062 -32.746094 C 59.683594 -33.410156 60.445312 -34.351562 60.949219 -35.5625 C 61.601562 -37.136719 61.972656 -38.839844 62.0625 -40.683594 C 62.160156 -42.683594 62.03125 -44.625 61.671875 -46.515625 C 61.339844 -48.269531 60.832031 -49.742188 60.152344 -50.9375 C 58.378906 -54.039062 56.207031 -56.355469 53.632812 -57.886719 C 50.847656 -59.546875 47.878906 -60.675781 44.734375 -61.269531 C 41.351562 -61.910156 38.007812 -62.230469 34.703125 -62.230469 C 28.578125 -62.164062 23.339844 -60.816406 18.980469 -58.1875 C 14.621094 -55.558594 11.265625 -52.089844 8.914062 -47.785156 C 6.539062 -43.441406 5.355469 -38.601562 5.355469 -33.273438 C 5.355469 -29.265625 6.097656 -25.539062 7.589844 -22.09375 C 9.097656 -18.605469 11.195312 -15.523438 13.875 -12.839844 C 16.558594 -10.15625 19.644531 -8.0625 23.128906 -6.554688 C 26.574219 -5.0625 30.300781 -4.316406 34.3125 -4.316406 L 66.894531 -4.316406 L 66.894531 0 L 62.578125 0 L 62.578125 -27.632812 L 66.894531 -27.632812 L 66.894531 -23.316406 L 34.3125 -23.316406 C 30.835938 -23.316406 28.183594 -24.480469 26.359375 -26.816406 C 24.765625 -28.855469 24 -31.179688 24.066406 -33.78125 C 24.128906 -36.394531 25.019531 -38.6875 26.738281 -40.660156 C 28.679688 -42.886719 31.335938 -43.9375 34.707031 -43.804688 L 34.539062 -39.492188 L 34.539062 -43.808594 C 38.335938 -43.808594 41.183594 -42.578125 43.082031 -40.113281 C 44.90625 -37.75 45.546875 -35.113281 45.003906 -32.195312 C 44.445312 -29.203125 42.722656 -26.914062 39.832031 -25.339844 Z M 39.832031 -25.339844 "/></g></g></g><g fill="#fff9f9" fill-opacity="1"><g transform="translate(5.588321, 108.273774)"><g><path d="M 37.765625 -29.125 C 39.453125 -30.050781 40.445312 -31.335938 40.75 -32.984375 C 41.0625 -34.640625 40.695312 -36.140625 39.65625 -37.484375 C 38.625 -38.828125 36.921875 -39.5 34.546875 -39.5 C 32.546875 -39.570312 31.023438 -39.007812 29.984375 -37.8125 C 28.953125 -36.625 28.414062 -35.242188 28.375 -33.671875 C 28.34375 -32.097656 28.804688 -30.695312 29.765625 -29.46875 C 30.722656 -28.25 32.238281 -27.640625 34.3125 -27.640625 L 66.890625 -27.640625 L 66.890625 0 L 34.3125 0 C 29.707031 0 25.40625 -0.863281 21.40625 -2.59375 C 17.414062 -4.320312 13.882812 -6.71875 10.8125 -9.78125 C 7.75 -12.851562 5.351562 -16.382812 3.625 -20.375 C 1.894531 -24.375 1.03125 -28.675781 1.03125 -33.28125 C 1.03125 -39.34375 2.394531 -44.867188 5.125 -49.859375 C 7.851562 -54.847656 11.726562 -58.859375 16.75 -61.890625 C 21.78125 -64.921875 27.75 -66.472656 34.65625 -66.546875 C 38.257812 -66.546875 41.882812 -66.203125 45.53125 -65.515625 C 49.175781 -64.828125 52.609375 -63.519531 55.828125 -61.59375 C 59.054688 -59.675781 61.75 -56.835938 63.90625 -53.078125 C 64.820312 -51.460938 65.488281 -49.539062 65.90625 -47.3125 C 66.332031 -45.09375 66.488281 -42.8125 66.375 -40.46875 C 66.257812 -38.125 65.78125 -35.9375 64.9375 -33.90625 C 64.09375 -31.875 62.789062 -30.28125 61.03125 -29.125 Z M 37.765625 -29.125 "/></g></g></g></g></g><g transform="matrix(1, 0, 0, 1, 199, 40)"><g clip-path="url(#e8b4442a0c)"><g fill="#171616" fill-opacity="1"><g transform="translate(7.065217, 108.449506)"><g><path d="M 46.457031 -64.589844 L 46.457031 -33.214844 L 31.203125 -33.214844 C 31.820312 -33.214844 32.40625 -33.496094 32.960938 -34.050781 C 33.515625 -34.605469 33.792969 -35.191406 33.792969 -35.808594 L 33.792969 4.316406 L -3.167969 4.316406 L -3.167969 -34.65625 C -3.167969 -41.5 -1.664062 -47.488281 1.339844 -52.613281 C 4.359375 -57.761719 8.546875 -61.777344 13.902344 -64.652344 C 19.183594 -67.492188 25.179688 -68.910156 31.894531 -68.910156 L 46.457031 -68.910156 Z M 37.820312 -64.589844 L 42.140625 -64.589844 L 42.140625 -60.273438 L 31.894531 -60.273438 C 26.628906 -60.273438 21.996094 -59.199219 17.988281 -57.046875 C 14.058594 -54.933594 10.992188 -52 8.792969 -48.246094 C 6.578125 -44.46875 5.46875 -39.9375 5.46875 -34.65625 L 5.46875 0 L 1.152344 0 L 1.152344 -4.316406 L 29.476562 -4.316406 L 29.476562 0 L 25.15625 0 L 25.15625 -35.808594 C 25.15625 -37.574219 25.722656 -39.023438 26.851562 -40.15625 C 27.984375 -41.285156 29.433594 -41.851562 31.203125 -41.851562 L 42.140625 -41.851562 L 42.140625 -37.535156 L 37.820312 -37.535156 Z M 37.820312 -64.589844 "/></g></g></g><g fill="#fff9f9" fill-opacity="1"><g transform="translate(7.065217, 108.449506)"><g><path d="M 42.140625 -64.59375 L 42.140625 -37.53125 L 31.203125 -37.53125 C 30.046875 -37.53125 29.46875 -36.957031 29.46875 -35.8125 L 29.46875 0 L 1.15625 0 L 1.15625 -34.65625 C 1.15625 -40.71875 2.457031 -45.972656 5.0625 -50.421875 C 7.675781 -54.878906 11.300781 -58.351562 15.9375 -60.84375 C 20.582031 -63.34375 25.898438 -64.59375 31.890625 -64.59375 Z M 42.140625 -64.59375 "/></g></g></g></g></g><g transform="matrix(1, 0, 0, 1, 254, 40)"><g clip-path="url(#06b85c8140)"><g fill="#fff9f9" fill-opacity="1"><g transform="translate(1.386538, 108.449506)"><g><path d="M 37.765625 -29.125 C 39.453125 -30.050781 40.445312 -31.335938 40.75 -32.984375 C 41.0625 -34.640625 40.695312 -36.140625 39.65625 -37.484375 C 38.625 -38.828125 36.921875 -39.5 34.546875 -39.5 C 32.546875 -39.570312 31.023438 -39.007812 29.984375 -37.8125 C 28.953125 -36.625 28.414062 -35.242188 28.375 -33.671875 C 28.34375 -32.097656 28.804688 -30.695312 29.765625 -29.46875 C 30.722656 -28.25 32.238281 -27.640625 34.3125 -27.640625 L 66.890625 -27.640625 L 66.890625 0 L 34.3125 0 C 29.707031 0 25.40625 -0.863281 21.40625 -2.59375 C 17.414062 -4.320312 13.882812 -6.71875 10.8125 -9.78125 C 7.75 -12.851562 5.351562 -16.382812 3.625 -20.375 C 1.894531 -24.375 1.03125 -28.675781 1.03125 -33.28125 C 1.03125 -39.34375 2.394531 -44.867188 5.125 -49.859375 C 7.851562 -54.847656 11.726562 -58.859375 16.75 -61.890625 C 21.78125 -64.921875 27.75 -66.472656 34.65625 -66.546875 C 38.257812 -66.546875 41.882812 -66.203125 45.53125 -65.515625 C 49.175781 -64.828125 52.609375 -63.519531 55.828125 -61.59375 C 59.054688 -59.675781 61.75 -56.835938 63.90625 -53.078125 C 64.820312 -51.460938 65.488281 -49.539062 65.90625 -47.3125 C 66.332031 -45.09375 66.488281 -42.8125 66.375 -40.46875 C 66.257812 -38.125 65.78125 -35.9375 64.9375 -33.90625 C 64.09375 -31.875 62.789062 -30.28125 61.03125 -29.125 Z M 37.765625 -29.125 "/></g></g></g></g></g><g transform="matrix(1, 0, 0, 1, 245, 35)"><g clip-path="url(#746991eee3)"><g fill="#fff9f9" fill-opacity="1"><g transform="translate(14.637513, 39.285688)"><g><path d="M 8.1875 -3.671875 L 5.171875 -2.328125 L -6.453125 -14.5625 L -3.578125 -15.84375 L 5.34375 -6 L 3.921875 -19.21875 L 6.78125 -20.5 Z M 8.1875 -3.671875 "/></g></g></g><g fill="#fff9f9" fill-opacity="1"><g transform="translate(30.21939, 32.527508)"><g><path d="M 8.546875 0.046875 C 7.242188 0.0859375 6.097656 -0.0976562 5.109375 -0.515625 C 4.117188 -0.941406 3.296875 -1.523438 2.640625 -2.265625 C 1.984375 -3.015625 1.484375 -3.878906 1.140625 -4.859375 C 0.796875 -5.847656 0.609375 -6.890625 0.578125 -7.984375 C 0.546875 -9.078125 0.671875 -10.125 0.953125 -11.125 C 1.242188 -12.132812 1.695312 -13.03125 2.3125 -13.8125 C 2.925781 -14.601562 3.710938 -15.226562 4.671875 -15.6875 C 5.628906 -16.15625 6.757812 -16.410156 8.0625 -16.453125 C 9.382812 -16.484375 10.539062 -16.296875 11.53125 -15.890625 C 12.519531 -15.484375 13.335938 -14.90625 13.984375 -14.15625 C 14.640625 -13.40625 15.132812 -12.535156 15.46875 -11.546875 C 15.8125 -10.566406 16 -9.53125 16.03125 -8.4375 C 16.0625 -7.34375 15.9375 -6.289062 15.65625 -5.28125 C 15.375 -4.28125 14.925781 -3.390625 14.3125 -2.609375 C 13.707031 -1.828125 12.925781 -1.195312 11.96875 -0.71875 C 11.007812 -0.238281 9.867188 0.015625 8.546875 0.046875 Z M 8.46875 -2.65625 C 9.457031 -2.675781 10.285156 -2.925781 10.953125 -3.40625 C 11.617188 -3.894531 12.117188 -4.566406 12.453125 -5.421875 C 12.785156 -6.273438 12.9375 -7.25 12.90625 -8.34375 C 12.875 -9.4375 12.664062 -10.390625 12.28125 -11.203125 C 11.90625 -12.023438 11.367188 -12.660156 10.671875 -13.109375 C 9.972656 -13.554688 9.128906 -13.769531 8.140625 -13.75 C 7.179688 -13.71875 6.363281 -13.457031 5.6875 -12.96875 C 5.019531 -12.476562 4.515625 -11.8125 4.171875 -10.96875 C 3.828125 -10.132812 3.671875 -9.171875 3.703125 -8.078125 C 3.734375 -6.984375 3.941406 -6.019531 4.328125 -5.1875 C 4.722656 -4.351562 5.269531 -3.710938 5.96875 -3.265625 C 6.675781 -2.828125 7.507812 -2.625 8.46875 -2.65625 Z M 8.46875 -2.65625 "/></g></g></g><g fill="#fff9f9" fill-opacity="1"><g transform="translate(49.711559, 32.928463)"><g><path d="M 10.53125 3.65625 L 1.34375 0.46875 L 6.5625 -14.578125 L 9.390625 -13.59375 L 5.046875 -1.078125 L 11.40625 1.125 Z M 10.53125 3.65625 "/></g></g></g><g fill="#fff9f9" fill-opacity="1"><g transform="translate(62.910843, 37.692995)"><g><path d="M 7.015625 5.59375 L 4.4375 3.53125 L 9.984375 -12.40625 L 12.453125 -10.4375 L 7.796875 2 L 18.875 -5.296875 L 21.328125 -3.34375 Z M 7.015625 5.59375 "/></g></g></g><g fill="#fff9f9" fill-opacity="1"><g transform="translate(75.924825, 48.843306)"><g><path d="M 6.21875 10.296875 L 0.734375 1.21875 L 14.359375 -7.015625 L 19.84375 2.0625 L 17.53125 3.46875 L 13.59375 -3.046875 L 10.234375 -1.015625 L 13.765625 4.828125 L 11.5 6.1875 L 7.96875 0.34375 L 4.578125 2.390625 L 8.515625 8.90625 Z M 6.21875 10.296875 "/></g></g></g></g></g></svg>